<svg width="50" height="50" viewBox="0 0 50 50" fill="none" xmlns="http://www.w3.org/2000/svg">
<rect width="50" height="50" fill="#007BFF"/>
<path d="M25 13.5417C26.3813 13.5417 27.7061 14.0904 28.6828 15.0671C29.6596 16.0439 30.2083 17.3687 30.2083 18.75C30.2083 19.434 30.0736 20.1112 29.8118 20.7431C29.5501 21.375 29.1664 21.9492 28.6828 22.4328C28.1992 22.9165 27.625 23.3001 26.9931 23.5619C26.3612 23.8236 25.6839 23.9583 25 23.9583C23.6186 23.9583 22.2939 23.4096 21.3171 22.4328C20.3404 21.4561 19.7916 20.1313 19.7916 18.75C19.7916 17.3687 20.3404 16.0439 21.3171 15.0671C22.2939 14.0904 23.6186 13.5417 25 13.5417ZM25 4.16666C28.8677 4.16666 32.577 5.70311 35.3119 8.43802C38.0468 11.1729 39.5833 14.8822 39.5833 18.75C39.5833 29.6875 25 45.8333 25 45.8333C25 45.8333 10.4166 29.6875 10.4166 18.75C10.4166 14.8822 11.9531 11.1729 14.688 8.43802C17.4229 5.70311 21.1322 4.16666 25 4.16666ZM25 8.33332C22.2373 8.33332 19.5878 9.43079 17.6343 11.3843C15.6808 13.3378 14.5833 15.9873 14.5833 18.75C14.5833 20.8333 14.5833 25 25 38.9792C35.4166 25 35.4166 20.8333 35.4166 18.75C35.4166 15.9873 34.3192 13.3378 32.3657 11.3843C30.4121 9.43079 27.7626 8.33332 25 8.33332Z" fill="white"/>
</svg>
